<?xml version="1.0" standalone="no"?>
<!DOCTYPE svg PUBLIC "-//W3C//DTD SVG 20010904//EN"
 "http://www.w3.org/TR/2001/REC-SVG-20010904/DTD/svg10.dtd">
<svg version="1.0" xmlns="http://www.w3.org/2000/svg"
 width="500.000000pt" height="500.000000pt" viewBox="0 0 500.000000 500.000000"
 preserveAspectRatio="xMidYMid meet">
<metadata>
Created by potrace 1.14, written by Peter Selinger 2001-2017
</metadata>
<g transform="translate(0.000000,500.000000) scale(0.100000,-0.100000)"
fill="#000000" stroke="none">
<path d="M2040 4801 c-36 -15 -92 -45 -125 -65 -33 -20 -109 -61 -170 -91
-195 -96 -499 -360 -782 -680 -63 -71 -124 -148 -135 -170 -39 -75 -69 -180
-93 -323 -21 -123 -25 -174 -24 -350 0 -114 5 -234 10 -267 5 -33 12 -108 15
-166 6 -92 4 -116 -15 -176 -32 -103 -41 -174 -41 -326 0 -133 14 -266 45
-412 27 -133 44 -311 55 -580 13 -296 18 -337 55 -395 14 -22 25 -44 25 -49 0
-5 -17 -12 -37 -16 -55 -10 -154 -46 -270 -99 -67 -30 -123 -48 -160 -52 -104
-10 -348 -60 -372 -75 -12 -8 -8 -9 14 -4 91 20 299 56 360 62 39 3 80 13 93
21 12 8 25 12 28 9 3 -3 15 4 26 15 12 12 29 18 43 16 14 -3 22 -1 19 6 -4 11
178 85 206 84 8 -1 24 2 36 6 16 5 27 -3 53 -39 18 -26 35 -44 38 -41 3 3 -5
20 -18 38 -35 48 -96 173 -91 186 2 7 14 12 27 12 33 0 148 -30 160 -42 6 -6
4 -7 -7 -3 -10 4 -18 3 -19 -1 0 -5 -3 -18 -6 -29 -3 -11 -6 -37 -7 -57 l-1
-37 -23 22 c-13 12 -21 15 -17 7 3 -8 27 -31 52 -50 65 -49 131 -111 111 -104
-20 7 -62 -32 -52 -49 4 -7 -16 10 -43 36 l-50 48 -7 -41 c-4 -23 -22 -72 -41
-108 -19 -36 -35 -74 -35 -84 0 -27 -89 -287 -108 -316 -8 -13 -31 -34 -51
-48 l-36 -24 1229 0 c1082 0 1227 2 1216 15 -8 10 -9 15 -2 15 6 0 16 -8 21
-17 10 -17 10 -17 11 0 0 9 5 17 10 17 6 0 11 -8 11 -17 1 -10 5 -5 9 12 l8
30 1 -27 1 -28 338 0 339 0 -1 50 c-1 27 -4 50 -8 50 -11 0 14 53 33 70 9 8
20 31 23 51 5 30 0 49 -29 104 -43 83 -65 155 -65 211 0 56 13 62 39 19 25
-42 41 -44 121 -10 63 27 153 34 180 14 12 -9 12 -10 -3 -5 -22 7 -40 -1 -32
-14 3 -5 16 -5 31 0 19 8 35 5 67 -11 77 -39 104 -66 127 -126 36 -97 49 -102
110 -47 33 30 50 37 102 44 74 8 104 1 165 -39 38 -25 57 -31 102 -31 39 0 73
-8 109 -25 60 -28 62 -28 62 -17 0 27 -303 144 -330 127 -5 -3 -10 -3 -10 2 0
4 -48 8 -108 9 -92 0 -113 3 -149 23 -23 12 -49 24 -57 25 -8 1 -23 9 -33 18
-10 9 -55 34 -100 57 -98 49 -135 51 -229 16 -85 -32 -100 -32 -119 5 -19 38
-19 42 6 74 16 20 24 24 34 16 7 -6 36 -17 65 -26 37 -11 50 -19 46 -30 -3 -8
-1 -14 4 -14 6 0 10 4 10 8 0 5 15 7 33 5 21 -2 3 8 -53 31 -47 19 -91 35 -97
35 -19 1 -16 17 11 64 14 23 46 119 71 212 26 94 60 215 77 270 27 90 138 518
174 670 8 33 17 137 21 230 5 153 4 181 -16 275 -13 57 -32 128 -43 157 -16
43 -20 84 -23 221 -4 190 -18 276 -66 384 -44 99 -49 125 -58 261 l-7 117 -57
113 c-31 61 -70 147 -87 191 -43 109 -53 128 -131 238 -54 75 -95 119 -191
200 -112 95 -391 284 -451 307 -14 6 -67 33 -117 62 -91 51 -93 51 -243 70
-84 11 -213 36 -287 56 -282 75 -344 80 -450 34z m340 -31 c0 -5 -4 -10 -9
-10 -5 0 -16 -3 -25 -6 -9 -3 -16 -1 -16 4 0 9 16 17 43 21 4 0 7 -3 7 -9z
m219 -45 c1 -2 -1 -10 -5 -17 -9 -14 -19 -39 -82 -218 -22 -63 -45 -116 -50
-118 -4 -1 -17 7 -27 18 -18 20 -18 23 14 128 19 59 41 133 50 165 l16 58 40
-7 c22 -3 42 -8 44 -9z m846 -399 c-10 -15 -19 -25 -21 -23 -2 2 1 18 7 36 7
21 15 29 21 23 6 -6 4 -19 -7 -36z m-490 -526 c3 -5 1 -10 -4 -10 -6 0 -11 5
-11 10 0 6 2 10 4 10 3 0 8 -4 11 -10z m275 -295 c0 -38 -4 -42 -25 -21 -16
16 -8 56 11 56 9 0 14 -12 14 -35z m-810 -35 c-14 -26 -9 -33 14 -24 9 4 15
13 12 20 -4 11 5 14 37 14 27 0 37 -3 28 -9 -7 -5 -22 -6 -32 -4 -10 3 -19 0
-19 -6 0 -14 57 -15 65 -1 4 6 38 9 80 7 56 -2 79 -7 95 -22 15 -13 36 -20 65
-20 32 0 41 -3 37 -14 -3 -8 0 -12 8 -9 24 8 171 -55 261 -110 94 -58 125 -86
131 -117 1 -11 8 -23 13 -27 6 -5 5 -8 -2 -8 -20 0 -15 -18 6 -25 11 -3 22
-12 25 -21 7 -17 -29 -11 -86 16 -21 10 -38 15 -38 11 0 -4 17 -17 38 -29 46
-27 22 -28 -33 -2 -29 14 -62 19 -120 20 -47 0 -75 -4 -67 -9 10 -6 9 -10 -7
-14 -13 -3 -21 0 -21 8 0 8 -8 11 -20 8 -12 -3 -18 -8 -15 -11 3 -3 -1 -12 -9
-21 -8 -9 -15 -20 -16 -26 -1 -5 -7 -9 -14 -7 -15 3 -40 -41 -33 -60 3 -8 9
-3 16 15 6 15 16 27 23 26 10 0 10 -2 1 -6 -7 -2 -13 -9 -13 -15 0 -6 6 -8 13
-5 51 21 52 21 39 5 -11 -14 -8 -16 30 -14 24 2 50 -2 59 -7 9 -6 25 -7 35 -2
11 4 52 8 92 8 70 -1 101 10 66 24 -9 3 -25 1 -35 -5 -26 -16 -34 -15 -19 3
14 16 76 20 99 6 11 -7 9 -11 -9 -21 -32 -17 -17 -25 17 -8 32 16 132 13 148
-4 7 -8 3 -9 -12 -5 -32 7 -29 -1 5 -14 25 -10 25 -12 7 -19 -17 -6 -14 -9 18
-19 21 -7 41 -19 44 -27 3 -8 13 -14 22 -14 28 0 190 -235 209 -301 11 -42 3
-377 -10 -385 -5 -4 -5 -10 0 -17 5 -7 12 -30 15 -52 3 -22 3 -34 0 -27 -9 24
-25 12 -18 -15 8 -32 -14 -109 -37 -130 -18 -16 -42 -9 -35 11 15 40 18 58 9
52 -5 -3 -12 3 -15 14 -3 11 -10 20 -16 20 -8 0 -6 -12 4 -36 14 -34 14 -36
-2 -23 -15 13 -16 12 -8 -6 13 -31 18 -85 9 -85 -5 0 -8 -32 -8 -71 1 -39 -2
-66 -5 -60 -7 11 -22 -11 -35 -52 -6 -18 -26 -15 -26 4 0 6 5 7 10 4 6 -3 10
1 10 9 0 9 -4 16 -9 16 -5 0 -14 12 -20 28 -10 24 -10 23 -8 -20 1 -27 -2 -48
-8 -48 -5 0 -3 -6 6 -13 10 -7 14 -19 10 -30 -7 -18 -8 -18 -21 -1 -9 11 -10
15 -2 10 6 -4 12 -2 12 3 0 14 -1 14 -41 -4 -31 -13 -30 -15 7 -19 19 -2 42
-26 40 -42 -1 -8 -5 -14 -9 -14 -16 1 -43 14 -49 24 -4 6 -10 7 -14 3 -5 -4 4
-19 19 -33 27 -25 36 -54 17 -54 -5 0 -10 5 -10 11 0 5 -4 8 -8 5 -9 -5 -38
62 -34 78 2 4 -2 14 -8 20 -5 7 -7 16 -3 19 3 4 0 14 -8 23 -8 10 -13 20 -11
23 1 3 -12 10 -28 14 -17 4 -33 14 -37 22 -3 8 -12 15 -20 15 -10 0 -3 -11 18
-30 19 -16 39 -30 44 -30 6 0 16 -9 23 -20 8 -13 8 -20 1 -20 -5 0 -7 -4 -4
-10 3 -5 -2 -10 -12 -10 -10 0 -14 -4 -8 -8 6 -4 12 -16 13 -26 3 -17 2 -18
-12 -7 -9 8 -16 20 -16 27 0 8 -9 19 -20 26 -23 15 -27 30 -6 22 9 -4 14 0 12
10 -3 20 -16 33 -16 16 0 -11 -3 -11 -12 -2 -7 7 -21 12 -33 13 -11 0 -15 3
-8 5 16 7 -2 56 -27 72 -17 10 -18 9 -13 -6 5 -13 3 -14 -7 -5 -7 6 -21 35
-31 65 l-19 53 5 -42 c3 -24 1 -43 -4 -43 -5 0 -9 6 -8 13 1 35 -4 57 -14 57
-7 0 -9 -9 -5 -22 4 -13 8 -32 9 -43 2 -12 9 -19 18 -17 16 2 55 -45 45 -55
-2 -3 -11 4 -18 16 -17 27 -32 27 -18 0 11 -19 10 -20 -10 -9 -23 12 -43 4
-22 -9 6 -4 14 -28 17 -54 3 -30 1 -46 -5 -42 -6 3 -10 20 -10 36 0 34 -16 69
-31 69 -6 0 -7 -5 -3 -12 4 -7 3 -8 -4 -4 -7 4 -12 13 -12 19 -1 28 -80 95
-80 68 0 -5 9 -11 20 -14 12 -3 20 -14 20 -26 0 -24 -12 -27 -30 -6 -10 12
-14 12 -32 -5 -24 -22 -41 -18 -57 17 -8 17 -17 24 -30 20 -25 -6 -62 43 -54
72 3 11 9 18 14 15 5 -3 9 -1 9 5 0 15 -18 23 -22 9 -5 -13 -28 -2 -28 13 0 6
5 7 10 4 6 -3 10 -1 10 4 0 17 -20 13 -27 -6 -4 -9 -1 -19 5 -21 14 -4 16 -22
3 -22 -5 0 -13 9 -16 21 -4 11 -9 18 -12 15 -9 -8 -33 14 -33 30 0 8 5 14 10
14 15 0 84 30 79 34 -6 6 -140 -30 -139 -37 1 -23 -2 -27 -18 -27 -10 0 -24 6
-31 13 -11 10 -11 8 -2 -10 10 -19 9 -22 -5 -16 -14 5 -16 1 -12 -22 l6 -29
-18 23 c-9 13 -22 22 -28 20 -6 -2 2 -19 18 -38 36 -40 37 -46 8 -30 -13 7
-35 14 -49 16 -25 2 -27 0 -25 -30 2 -17 0 -41 -4 -52 -6 -16 -9 -14 -19 18
-7 20 -10 45 -7 54 3 10 2 24 -3 32 -7 11 -11 10 -20 -5 -11 -17 -11 -17 -6 4
6 22 5 22 -14 10 -18 -11 -23 -11 -30 0 -4 7 -17 15 -27 17 -10 2 -21 4 -23 4
-2 1 3 8 10 17 12 15 10 16 -21 10 -28 -5 -30 -4 -12 4 12 5 22 11 22 14 0 10
-54 -2 -58 -12 -2 -6 -23 -9 -53 -6 -44 4 -49 3 -49 -15 0 -11 -6 -22 -12 -24
-7 -3 -3 -6 9 -6 16 -1 21 3 17 14 -4 8 -1 15 5 15 6 0 11 -13 11 -28 0 -22
-5 -28 -22 -29 -13 -1 -30 -11 -40 -23 -9 -11 -23 -18 -31 -14 -9 3 -21 -3
-29 -15 -8 -12 -18 -18 -21 -14 -4 3 -7 -4 -7 -16 0 -16 -5 -21 -14 -18 -7 3
-19 0 -25 -6 -6 -6 -11 -7 -11 -1 0 6 6 16 13 23 10 10 9 11 -3 6 -8 -3 -24
-18 -35 -35 -11 -16 -21 -27 -23 -25 -2 2 4 15 13 29 9 14 14 29 11 35 -3 5 0
11 6 14 7 2 10 8 6 12 -4 4 -17 0 -30 -9 -18 -13 -19 -16 -5 -16 9 0 17 -4 17
-9 0 -13 -17 -23 -23 -14 -2 5 -3 3 -1 -4 4 -18 -4 -21 -39 -13 -24 5 -41 1
-69 -17 -20 -12 -44 -20 -53 -17 -15 6 -19 -4 -16 -37 2 -21 -40 -119 -51
-119 -4 0 -8 -5 -8 -10 0 -7 6 -7 20 0 11 6 20 7 20 2 0 -14 -47 -62 -54 -55
-3 3 -12 0 -20 -6 -11 -10 -17 -8 -25 6 -8 13 -13 15 -19 6 -12 -19 -36 2 -29
26 4 18 1 21 -25 21 -25 0 -28 3 -23 22 6 16 4 20 -8 15 -19 -7 -57 33 -56 59
0 12 3 14 6 5 9 -22 21 6 15 35 l-5 25 -18 -30 c-20 -33 -49 -42 -49 -15 0 8
-4 12 -10 9 -5 -3 -10 2 -10 12 0 10 -3 29 -5 43 -5 21 -4 22 4 5 8 -19 9 -19
16 -2 5 12 1 23 -12 35 -15 14 -18 31 -18 89 0 71 -13 93 -25 42 -5 -21 -7
-22 -13 -6 -4 10 -10 43 -13 73 -4 30 -11 57 -15 60 -5 3 -9 35 -9 72 0 37 -5
112 -11 167 -12 112 -14 336 -3 398 10 63 66 206 119 303 39 73 67 107 151
189 131 126 163 153 249 205 39 23 76 47 83 53 8 6 32 12 55 14 23 2 67 8 97
13 56 11 93 15 215 23 39 3 62 3 53 0 -22 -6 -24 -23 -3 -23 8 0 22 15 31 33
10 17 19 27 21 20 2 -7 -1 -22 -7 -33z m1656 -278 c3 -18 9 -30 14 -27 5 3 18
-20 30 -51 24 -67 50 -208 38 -212 -4 -2 -8 -16 -8 -30 0 -21 2 -24 10 -12 6
10 10 -41 11 -155 0 -96 4 -161 8 -150 7 17 10 12 20 -25 7 -25 18 -67 26 -95
25 -90 29 -125 14 -125 -10 0 -10 -3 1 -15 13 -12 14 -44 9 -202 -6 -162 -10
-200 -33 -273 -14 -47 -37 -132 -51 -190 -14 -58 -32 -127 -40 -155 -7 -27
-26 -99 -41 -158 -17 -67 -30 -103 -35 -95 -5 8 -8 2 -7 -17 1 -26 -20 -110
-79 -315 -9 -30 -25 -65 -36 -78 -11 -12 -15 -22 -9 -22 9 0 9 -6 0 -25 -10
-23 -12 -23 -24 -7 -7 9 -8 19 -3 20 5 2 9 8 9 13 0 6 -23 8 -56 5 -75 -7 -89
6 -63 57 29 56 27 120 -4 165 -18 24 -23 38 -15 43 6 4 8 18 4 33 -3 14 -9 37
-12 51 -7 29 24 135 39 132 6 -1 16 8 22 21 5 12 15 22 22 22 7 0 13 9 13 19
0 11 4 21 8 23 11 4 62 131 62 153 0 9 -4 14 -9 11 -4 -3 -6 6 -3 20 3 16 7
21 12 14 5 -8 11 -1 18 19 7 19 7 31 1 31 -5 0 -9 -8 -9 -17 0 -9 -2 -14 -5
-11 -3 3 8 56 25 119 16 63 43 165 60 227 41 154 60 274 69 427 10 162 6 473
-8 580 -5 46 -6 97 -2 120 5 22 9 33 10 24 0 -8 8 -24 16 -35 14 -18 15 -16 9
21 -4 22 -13 45 -20 50 -8 6 -15 41 -18 90 -2 44 -3 67 0 50 2 -16 7 -45 10
-63z m-3312 -360 c2 -4 -2 -18 -10 -32 l-13 -25 -1 33 c0 29 12 43 24 24z m40
-402 c33 -214 75 -346 150 -465 41 -64 47 -80 51 -135 3 -52 45 -153 78 -185
30 -30 56 -61 97 -115 19 -25 41 -49 48 -53 11 -7 10 -13 -6 -30 -47 -52 -55
-109 -22 -170 11 -20 20 -43 20 -51 0 -8 5 -18 11 -21 7 -5 8 12 3 53 -6 60 5
102 28 102 9 0 9 -3 1 -11 -12 -12 -8 -62 13 -161 17 -80 19 -173 3 -145 -17
29 -32 20 -25 -15 4 -24 3 -29 -4 -18 -9 13 -10 13 -10 0 0 -9 -25 -29 -55
-45 l-55 -28 -112 13 c-62 7 -134 11 -160 9 l-46 -4 -6 45 c-10 88 -16 446 -7
425 9 -18 10 -18 10 7 1 29 -14 46 -22 26 -3 -7 -3 1 0 19 3 18 0 47 -6 65 -7
18 -14 67 -17 108 -2 42 -9 91 -14 110 -50 168 -67 524 -28 582 25 36 22 49
-4 18 l-21 -25 7 40 c4 22 12 44 17 50 5 5 9 23 9 40 0 17 5 36 12 43 7 7 13
24 14 40 1 15 2 45 4 67 l2 40 12 -55 c7 -30 21 -107 30 -170z m1506 -510 c0
-5 -8 -10 -17 -10 -15 0 -16 2 -3 10 19 12 20 12 20 0z m-40 -4 c0 -3 -4 -8
-10 -11 -5 -3 -10 -1 -10 4 0 6 5 11 10 11 6 0 10 -2 10 -4z m80 0 c0 -2 -7
-6 -15 -10 -8 -3 -15 -1 -15 4 0 6 7 10 15 10 8 0 15 -2 15 -4z m390 -6 c0 -5
-2 -10 -4 -10 -3 0 -8 5 -11 10 -3 6 -1 10 4 10 6 0 11 -4 11 -10z m-1312 -74
c-2 -25 -6 -42 -10 -38 -7 7 1 82 9 82 2 0 2 -20 1 -44z m849 23 c-43 -32 -55
-66 -50 -138 3 -59 2 -67 -22 -88 -30 -28 -33 -53 -5 -53 14 0 20 7 20 24 0
13 7 26 15 30 8 3 15 1 15 -5 0 -6 5 -7 10 -4 6 3 10 1 10 -6 0 -10 3 -10 11
-2 6 6 19 9 28 5 14 -5 14 -3 3 10 -8 10 -9 19 -3 22 5 4 14 -2 20 -11 9 -16
10 -16 11 4 0 16 5 20 20 16 11 -3 20 -9 20 -14 0 -5 4 -9 10 -9 5 0 7 6 4 14
-3 9 6 15 30 19 48 8 87 0 102 -21 12 -16 13 -15 14 5 0 12 -8 27 -17 32 -10
6 -13 11 -8 11 6 0 17 -6 24 -12 14 -15 151 -18 151 -4 0 6 6 3 13 -6 17 -21
45 -29 51 -15 2 7 5 4 5 -5 1 -22 10 -23 39 -2 24 17 42 12 42 -12 0 -8 5 -12
10 -9 6 3 10 -1 10 -9 0 -9 5 -16 10 -16 6 0 10 -3 10 -8 0 -13 -78 -32 -178
-44 -94 -12 -605 -18 -615 -8 -3 3 -7 18 -9 35 -2 22 2 30 15 33 12 2 17 -1
15 -11 -4 -20 10 -19 42 2 42 26 54 42 56 72 2 32 -7 35 -53 19 l-28 -10 25
20 c22 18 23 20 5 18 -15 -2 -21 3 -23 22 -2 23 -2 24 12 7 19 -24 46 -8 77
47 24 44 55 76 73 76 6 0 -2 -10 -17 -21z m-59 -30 c-6 -16 -13 -28 -15 -25
-8 8 6 56 17 56 5 0 5 -13 -2 -31z m-32 -11 c-3 -13 -5 -25 -6 -28 -2 -3 -2
-8 -1 -12 1 -10 -11 -10 -28 1 -10 7 -8 14 10 35 28 32 30 32 25 4z m-48 -8
c-7 -10 -14 -17 -17 -15 -4 4 18 35 25 35 2 0 -1 -9 -8 -20z m-32 -58 c-18
-16 -18 -16 -6 6 6 13 14 21 18 18 3 -4 -2 -14 -12 -24z m1114 -7 c0 -16 -33
-25 -50 -15 -9 6 -7 10 8 14 15 5 19 12 15 24 -6 15 -5 15 10 3 9 -7 17 -19
17 -26z m-58 -27 c14 -14 23 -18 26 -10 6 20 18 14 62 -28 35 -34 38 -40 21
-40 -12 0 -21 -4 -21 -9 0 -15 18 -23 22 -10 2 6 16 -1 32 -14 22 -19 25 -25
13 -30 -22 -8 -10 -42 19 -57 26 -15 24 -23 -7 -25 -21 -2 -51 33 -63 72 -4
11 -17 28 -31 37 -13 8 -26 30 -30 48 -7 32 -20 48 -39 48 -5 0 -1 -9 9 -20
28 -31 13 -33 -20 -3 -17 17 -24 28 -16 31 9 3 9 7 0 18 -18 22 -1 16 23 -8z
m-1182 8 c0 -2 -7 -7 -16 -10 -8 -3 -12 -2 -9 4 6 10 25 14 25 6z m347 -38
c-3 -7 -5 -2 -5 12 0 14 2 19 5 13 2 -7 2 -19 0 -25z m-176 -21 c-10 -9 -11
-8 -5 6 3 10 9 15 12 12 3 -3 0 -11 -7 -18z m43 7 c3 -8 2 -12 -4 -9 -6 3 -10
2 -10 -3 0 -5 -12 -18 -27 -28 l-28 -18 30 36 c17 20 31 37 31 37 1 1 5 -6 8
-15z m86 -12 c0 -5 -7 -9 -15 -9 -8 0 -12 4 -9 9 3 4 9 8 15 8 5 0 9 -4 9 -8z
m881 -9 c13 -16 12 -17 -3 -4 -17 13 -22 21 -14 21 2 0 10 -8 17 -17z m205
-59 c1 -24 7 -50 14 -59 19 -22 -4 -18 -25 5 -10 11 -21 17 -26 15 -4 -3 -11
0 -15 6 -4 8 -3 9 4 5 7 -4 12 -2 12 5 0 8 5 7 17 -2 15 -12 15 -12 7 4 -11
19 -6 83 5 72 3 -4 6 -26 7 -51z m-116 -49 c0 6 9 -3 20 -20 11 -16 28 -41 37
-55 l18 -25 -35 26 c-19 14 -47 34 -62 45 -25 17 -41 43 -18 29 6 -3 10 -1 10
5 0 6 -7 13 -15 16 -8 4 -12 11 -8 17 4 6 16 -1 30 -19 12 -16 23 -24 23 -19z
m-210 0 c17 -9 30 -22 30 -30 0 -8 11 -17 24 -21 14 -3 32 -14 42 -25 19 -21
13 -24 -18 -8 -30 16 -34 3 -7 -21 l24 -21 -35 7 -35 6 23 -21 c37 -36 25 -54
-21 -30 -16 9 -22 9 -25 0 -2 -6 -10 -11 -18 -11 -9 0 -13 4 -10 9 7 10 -49 9
-60 -2 -4 -4 2 -7 14 -7 11 0 24 -4 27 -10 3 -5 20 -7 37 -3 23 5 30 3 26 -8
-2 -7 -15 -17 -29 -21 -16 -5 -9 -6 21 -3 29 3 38 1 25 -4 -11 -4 -20 -17 -20
-27 0 -20 -6 -21 -40 -8 -18 7 -19 6 -6 -9 11 -14 11 -23 3 -40 -6 -12 -12
-31 -14 -42 -3 -13 -10 -19 -23 -17 -11 2 -16 -1 -10 -5 6 -4 18 -18 29 -30
l18 -22 -31 12 c-22 8 -31 18 -31 34 0 13 -4 23 -8 23 -5 0 -8 -10 -6 -22 1
-13 3 -26 3 -30 1 -5 9 -8 20 -8 10 0 25 -7 32 -16 12 -15 10 -16 -21 -9 -31
7 -33 6 -21 -9 7 -9 10 -16 5 -16 -4 0 -3 -5 4 -12 9 -9 15 -9 24 0 7 7 16 12
22 12 5 0 -1 -9 -14 -20 -14 -12 -18 -20 -10 -20 11 0 11 -3 3 -11 -9 -9 -8
-15 3 -26 8 -8 14 -20 14 -26 0 -7 -8 -3 -16 8 -8 11 -20 19 -26 17 -7 -2 -7
2 1 12 10 11 10 20 0 37 -11 21 -13 21 -24 6 -6 -9 -15 -13 -20 -9 -4 4 -4 -3
-1 -15 5 -14 3 -23 -3 -23 -6 0 -11 4 -11 8 0 10 -50 35 -57 28 -7 -7 17 -46
29 -46 7 0 6 5 -2 15 -11 13 -10 14 4 9 17 -7 22 -49 6 -59 -5 -3 -10 1 -10 9
0 9 -6 16 -14 16 -19 0 -30 -53 -17 -79 6 -11 8 -29 3 -41 -8 -21 -8 -21 -21
6 l-13 28 -16 -27 c-26 -42 -45 -31 -22 13 7 13 7 21 0 25 -5 3 -10 -2 -10
-11 0 -13 -3 -15 -10 -8 -12 12 -2 47 10 39 4 -3 11 2 14 10 4 13 10 14 26 5
11 -6 20 -7 20 -2 0 10 -24 33 -31 29 -2 -1 1 3 7 8 6 6 9 15 7 21 -2 6 3 24
11 39 16 31 11 52 -5 22 -6 -9 -17 -17 -26 -17 -14 0 -14 2 3 14 10 8 16 18
12 22 -4 4 -14 1 -22 -5 -11 -10 -15 -8 -19 6 -3 10 -5 0 -4 -22 1 -22 7 -46
14 -53 7 -7 9 -20 6 -28 -5 -13 -8 -13 -18 -2 -17 19 -35 65 -27 72 3 4 7 13
8 20 3 19 -33 27 -46 11 -8 -9 -5 -14 12 -19 15 -5 18 -9 10 -13 -9 -3 -10 -9
-3 -17 12 -14 21 -86 11 -86 -3 0 -5 -13 -2 -30 3 -18 0 -30 -7 -30 -6 0 -11
-8 -11 -17 0 -10 -4 -24 -9 -32 -5 -8 -7 4 -4 33 4 32 2 46 -6 46 -7 0 -10 -8
-7 -18 4 -13 1 -19 -9 -19 -20 0 -19 17 1 46 10 14 13 26 7 30 -5 3 -13 15
-18 26 -8 19 -9 19 -13 -4 -2 -13 2 -27 8 -31 10 -6 9 -13 -4 -31 -9 -13 -16
-45 -17 -74 l-1 -50 -8 39 c-4 21 -13 42 -20 46 -7 4 -11 14 -8 21 3 8 2 23
-3 34 -7 18 -8 18 -9 -5 l-1 -25 -11 23 c-7 13 -20 22 -35 22 -28 0 -31 16 -3
23 14 4 20 14 20 33 0 26 -1 27 -14 9 -8 -11 -12 -23 -10 -27 3 -5 1 -8 -5 -8
-5 0 -17 -3 -26 -6 -14 -6 -16 -1 -14 22 2 16 -1 28 -7 27 -6 -1 -9 15 -8 38
1 31 -2 39 -16 39 -10 0 -21 -6 -23 -12 -4 -10 -6 -10 -6 0 -1 7 6 15 14 18 8
4 15 12 15 19 0 15 33 26 49 15 9 -5 8 -10 -4 -20 -19 -15 -20 -64 -2 -79 19
-15 27 -4 26 33 l-2 31 -7 -35 -7 -35 -1 35 c-2 42 27 80 58 80 19 0 20 -2 10
-15 -7 -9 -11 -17 -9 -18 35 -25 59 -36 59 -26 0 8 4 8 15 -1 10 -9 15 -9 15
-1 0 6 -4 11 -9 11 -5 0 -11 9 -14 20 -3 11 -10 20 -16 20 -9 0 -9 -5 -1 -20
6 -11 7 -20 3 -20 -13 1 -48 30 -36 30 7 0 15 9 18 20 6 18 8 18 21 5 9 -8 22
-15 29 -15 8 0 17 -9 20 -20 3 -11 11 -20 16 -20 5 0 9 9 9 20 0 11 5 20 10
20 6 0 9 -5 8 -11 -2 -6 3 -14 10 -16 7 -3 12 4 12 16 0 13 5 19 14 15 9 -3
16 2 18 13 5 20 -11 63 -23 63 -4 0 -14 3 -23 6 -9 3 -16 2 -16 -4 0 -5 9 -12
20 -15 21 -5 27 -31 9 -42 -6 -4 -13 2 -16 14 -3 12 -9 21 -14 21 -5 0 -9 17
-9 38 0 42 -32 102 -55 102 -8 0 -15 5 -15 11 0 6 -18 9 -47 8 -26 -2 -48 1
-50 7 -4 11 -245 10 -263 -1 -5 -3 -10 -1 -10 5 0 15 -42 2 -57 -18 -18 -22
-16 -35 3 -28 10 4 14 1 12 -6 -3 -7 -19 -14 -38 -16 -29 -3 -32 -1 -27 17 3
12 2 21 -3 21 -12 0 -20 -27 -20 -66 0 -44 -21 -45 -40 -1 -7 17 -15 36 -18
40 -2 4 7 6 20 4 12 -2 17 -2 11 0 -7 3 -13 9 -13 14 0 5 -5 9 -11 9 -6 0 -17
7 -25 15 -12 12 -12 15 -2 15 15 0 68 46 68 60 0 5 -15 7 -32 3 -44 -8 -48
-13 -12 -13 l29 0 -30 -20 c-16 -11 -39 -20 -50 -20 -19 1 -19 1 -2 14 23 17
22 23 -4 22 -12 -1 -24 5 -27 13 -3 9 0 11 7 7 7 -4 18 -3 25 3 8 7 19 10 26
9 7 -2 15 3 17 11 4 9 0 11 -13 8 -53 -16 -74 -18 -74 -9 0 14 19 26 43 27 10
1 22 6 25 12 15 22 66 27 307 28 146 0 287 6 340 14 229 33 301 34 355 6z
m831 -116 c-12 -19 -21 -28 -21 -21 0 14 33 62 38 57 2 -1 -6 -18 -17 -36z
m-2592 12 c16 -10 6 -31 -14 -31 -20 0 -45 -52 -45 -92 0 -37 -17 -27 -20 12
-4 50 0 68 25 94 26 28 33 30 54 17z m2571 -55 c0 -3 -4 -8 -10 -11 -5 -3 -10
-1 -10 4 0 6 5 11 10 11 6 0 10 -2 10 -4z m-20 -40 c0 -3 -4 -8 -10 -11 -5 -3
-10 -1 -10 4 0 6 5 11 10 11 6 0 10 -2 10 -4z m-33 -48 c-3 -8 -6 -5 -6 6 -1
11 2 17 5 13 3 -3 4 -12 1 -19z m-1617 -21 c0 -2 -8 -12 -19 -21 -17 -16 -19
-16 -24 4 -4 16 0 20 19 20 13 0 24 -2 24 -3z m160 -21 c0 -2 -7 -9 -15 -16
-13 -11 -14 -10 -9 4 5 14 24 23 24 12z m685 -85 c3 -5 1 -12 -5 -16 -5 -3
-10 1 -10 9 0 18 6 21 15 7z m-1245 -58 c29 -20 43 -40 46 -68 2 -17 -5 -14
-36 18 -48 48 -78 47 -101 -2 l-16 -35 1 31 c0 17 3 29 5 27 2 -2 12 3 22 12
13 12 28 15 50 10 42 -8 30 4 -13 14 -28 7 -29 8 -8 9 14 1 37 -7 50 -16z
m1965 -3 c3 -5 1 -10 -4 -10 -6 0 -11 5 -11 10 0 6 2 10 4 10 3 0 8 -4 11 -10z
m-1961 -62 c9 -12 16 -32 16 -43 0 -18 -2 -17 -13 5 -7 13 -22 30 -35 36 -12
6 -19 14 -15 17 12 13 32 7 47 -15z m653 -10 c-3 -8 -6 -5 -6 6 -1 11 2 17 5
13 3 -3 4 -12 1 -19z m-679 -40 c3 -32 0 -38 -17 -38 -20 0 -51 24 -51 40 0
27 15 41 39 38 22 -3 26 -8 29 -40z m1032 32 c0 -5 -2 -10 -4 -10 -3 0 -8 5
-11 10 -3 6 -1 10 4 10 6 0 11 -4 11 -10z m290 -10 c6 -11 8 -20 6 -20 -3 0
-10 9 -16 20 -6 11 -8 20 -6 20 3 0 10 -9 16 -20z m64 -22 l17 -33 -21 28
c-12 15 -26 25 -31 21 -5 -3 -9 0 -9 5 0 23 27 10 44 -21z m597 11 c22 -11 17
-31 -6 -23 -13 5 -30 34 -19 34 3 0 14 -5 25 -11z m-1917 -60 c-18 -20 -40
-24 -69 -13 -13 5 -8 11 21 25 29 13 41 14 46 6 5 -7 8 1 9 18 1 25 2 26 6 7
3 -14 -3 -32 -13 -43z m325 -11 c1 -5 -3 -8 -8 -8 -11 0 -21 37 -13 45 6 5 20
-19 21 -37z m906 -17 c29 -34 29 -34 3 -15 -15 10 -32 30 -38 44 -6 14 -8 21
-3 15 4 -5 22 -25 38 -44z m-193 14 c3 -13 1 -22 -3 -19 -9 5 -13 44 -5 44 2
0 6 -11 8 -25z m918 -21 c-5 -19 -12 -39 -16 -42 -4 -4 -4 1 -1 11 4 10 7 30
7 43 0 13 4 24 9 24 5 0 5 -15 1 -36z m-802 1 c-3 -3 -9 2 -12 12 -6 14 -5 15
5 6 7 -7 10 -15 7 -18z m-53 -5 c10 -11 16 -20 13 -20 -3 0 -13 9 -23 20 -10
11 -16 20 -13 20 3 0 13 -9 23 -20z m50 -41 c11 -17 2 -18 -25 -4 -24 14 -24
14 -3 15 12 0 25 -5 28 -11z m60 -9 c27 -30 12 -34 -15 -5 -13 14 -19 25 -13
25 5 0 18 -9 28 -20z m-1686 -13 c12 -15 12 -17 -3 -11 -9 3 -16 13 -16 22 0
8 1 13 3 11 1 -2 9 -12 16 -22z m1521 -54 c-11 -17 -11 -17 -6 0 3 10 7 33 8
50 l1 32 4 -32 c2 -18 -1 -41 -7 -50z m881 44 c-10 -9 -11 -8 -5 6 3 10 9 15
12 12 3 -3 0 -11 -7 -18z m-794 -9 c-3 -8 -6 -5 -6 6 -1 11 2 17 5 13 3 -3 4
-12 1 -19z m35 -32 c7 4 8 2 4 -5 -9 -13 -26 -5 -25 12 0 9 2 8 6 -1 2 -6 10
-9 15 -6z m-55 -33 c-3 -10 -5 -4 -5 12 0 17 2 24 5 18 2 -7 2 -21 0 -30z
m354 -26 c-10 -9 -11 -8 -5 6 3 10 9 15 12 12 3 -3 0 -11 -7 -18z m-334 -39
c-3 -8 -6 -5 -6 6 -1 11 2 17 5 13 3 -3 4 -12 1 -19z m326 -49 c-7 -7 -19 -9
-29 -5 -16 6 -16 8 2 21 22 16 45 2 27 -16z m-1864 -48 c-29 -53 -36 -46 -7 7
12 23 23 40 26 38 2 -3 -6 -23 -19 -45z m-73 -96 c9 -14 14 -28 11 -31 -11
-11 -47 17 -47 36 0 27 16 25 36 -5z m3068 -87 c-3 -4 2 -17 10 -29 l14 -21
14 21 c7 11 21 21 30 21 13 0 7 -10 -22 -36 -21 -20 -46 -34 -55 -32 -12 2
-65 105 -65 126 0 1 18 -8 39 -20 22 -12 37 -26 35 -30z m-657 10 c-3 -8 -6
-5 -6 6 -1 11 2 17 5 13 3 -3 4 -12 1 -19z m10 -40 c-3 -8 -6 -5 -6 6 -1 11 2
17 5 13 3 -3 4 -12 1 -19z m1033 -18 l85 -29 -60 6 c-50 4 -125 34 -125 49 0
7 11 4 100 -26z m-1016 -35 c5 -22 4 -26 -4 -15 -5 8 -10 24 -10 34 0 26 6 18
14 -19z m-1304 -235 c0 -5 -6 -7 -14 -4 -8 3 -29 -2 -46 -11 -18 -9 -29 -11
-25 -5 14 23 85 40 85 20z m-1440 -29 c0 -20 -17 -37 -27 -28 -7 8 7 47 18 47
5 0 9 -9 9 -19z m1450 -20 c0 -5 -13 -11 -30 -13 -20 -3 -30 0 -30 9 0 8 12
13 30 13 17 0 30 -4 30 -9z"/>
<path d="M1962 3410 c-8 -13 -8 -20 -2 -20 6 0 13 7 17 15 9 24 -1 27 -15 5z"/>
<path d="M1945 3370 c-3 -5 1 -10 9 -10 9 0 16 5 16 10 0 6 -4 10 -9 10 -6 0
-13 -4 -16 -10z"/>
<path d="M2050 3182 c0 -4 13 -15 28 -26 32 -21 65 -71 66 -100 1 -11 7 -21
15 -24 9 -3 11 0 7 9 -4 8 0 5 8 -5 9 -11 18 -17 22 -14 9 10 -95 144 -121
156 -14 6 -25 8 -25 4z"/>
<path d="M2120 3178 c0 -19 35 -78 47 -78 7 0 13 -9 13 -19 0 -11 5 -23 12
-27 8 -5 9 1 5 22 -10 49 -29 90 -35 75 -3 -10 -9 -8 -23 10 -10 13 -19 21
-19 17z"/>
<path d="M2197 3128 c3 -18 12 -46 19 -63 l14 -30 -4 35 c-5 51 -17 90 -27 90
-5 0 -6 -15 -2 -32z"/>
<path d="M1954 3141 c4 -6 1 -11 -8 -11 -8 0 -20 -8 -25 -17 -10 -17 -10 -17
-11 1 0 15 -3 16 -15 6 -8 -7 -21 -10 -30 -7 -18 7 -85 -19 -85 -33 0 -6 -6
-10 -14 -10 -8 0 -21 -8 -28 -18 -19 -27 -51 -42 -95 -43 -27 -1 -31 -3 -13
-6 l24 -5 -24 -14 -25 -13 28 -1 c15 0 27 5 27 11 0 11 25 8 66 -8 12 -4 15
-3 10 6 -5 8 4 7 30 -4 53 -22 56 -9 3 16 -41 19 -42 20 -11 15 18 -3 41 0 51
6 15 9 27 7 57 -9 22 -11 52 -23 68 -27 26 -6 28 -5 16 9 -12 14 -10 15 14 5
35 -13 96 -13 96 0 0 5 -11 17 -25 26 -14 9 -25 23 -25 32 0 10 13 1 34 -22
18 -21 39 -37 45 -35 8 3 4 13 -9 27 -16 17 -19 26 -11 36 12 15 5 46 -11 46
-5 0 -6 -4 -3 -10 6 -10 -71 22 -83 35 -4 4 6 5 23 1 16 -4 33 -13 37 -19 6
-9 10 -9 17 1 6 11 13 7 30 -16 25 -35 27 -54 6 -46 -8 4 -15 3 -15 0 0 -4 11
-11 25 -16 14 -5 24 -15 23 -21 -2 -6 3 -14 10 -16 11 -4 12 -1 3 15 -6 11
-11 29 -11 39 -1 21 -37 66 -65 81 -32 16 -109 26 -101 13z m76 -141 c8 -5 11
-10 5 -10 -5 0 -21 10 -35 21 -24 20 -5 13 30 -11z"/>
<path d="M2300 3095 c-7 -25 -11 -48 -8 -51 3 -2 11 16 18 41 7 25 11 48 8 51
-3 2 -11 -16 -18 -41z"/>
<path d="M1725 3120 c-3 -5 1 -10 9 -10 8 0 18 5 21 10 3 6 -1 10 -9 10 -8 0
-18 -4 -21 -10z"/>
<path d="M2838 3123 c17 -7 15 -23 -3 -23 -8 0 -15 -7 -15 -15 0 -8 -7 -15
-15 -15 -8 0 -15 -5 -15 -12 0 -6 -3 -8 -7 -5 -8 8 -43 -22 -43 -36 0 -6 6 -2
14 8 12 17 13 15 10 -20 -3 -32 -2 -36 7 -22 5 9 7 22 4 27 -4 6 -1 9 6 8 7
-2 23 13 36 32 13 19 41 45 61 57 l37 23 -45 -1 c-25 0 -39 -3 -32 -6z"/>
<path d="M1682 3088 c-4 -4 -16 -9 -27 -11 -19 -3 -85 -58 -85 -71 0 -3 -11
-22 -25 -42 -14 -20 -25 -46 -25 -58 0 -15 6 -8 21 21 24 49 48 73 45 47 0 -9
5 -18 12 -20 7 -1 8 0 3 2 -5 3 -6 17 -1 34 4 16 5 32 2 36 -4 4 1 4 11 1 18
-7 63 10 54 20 -3 2 -16 -1 -29 -8 -23 -12 -23 -12 -4 9 10 12 23 19 28 16 11
-7 78 15 78 26 0 10 -48 8 -58 -2z"/>
<path d="M2253 3055 c2 -49 11 -58 21 -22 10 39 7 67 -9 67 -10 0 -14 -11 -12
-45z"/>
<path d="M2775 3090 c-8 -13 5 -13 25 0 13 8 13 10 -2 10 -9 0 -20 -4 -23 -10z"/>
<path d="M2720 3055 c-8 -9 -8 -15 -2 -15 12 0 26 19 19 26 -2 2 -10 -2 -17
-11z"/>
<path d="M2311 3044 c0 -11 3 -14 6 -6 3 7 2 16 -1 19 -3 4 -6 -2 -5 -13z"/>
<path d="M1690 3040 c0 -5 5 -10 10 -10 6 0 10 5 10 10 0 6 -4 10 -10 10 -5 0
-10 -4 -10 -10z"/>
<path d="M2717 3024 c-4 -4 -7 -17 -7 -28 1 -19 1 -20 11 -3 11 19 8 43 -4 31z"/>
<path d="M1810 2995 c0 -17 9 -19 28 -6 11 7 10 10 -3 15 -23 9 -25 8 -25 -9z"/>
<path d="M2190 3001 c0 -5 5 -13 10 -16 6 -3 10 -2 10 4 0 5 -4 13 -10 16 -5
3 -10 2 -10 -4z"/>
<path d="M2251 2993 c0 -4 4 -17 9 -28 8 -19 9 -19 9 2 1 12 -3 25 -9 28 -5 3
-10 3 -9 -2z"/>
<path d="M3250 2961 c0 -14 39 -20 49 -7 6 8 1 12 -20 13 -16 1 -29 -2 -29 -6z"/>
<path d="M1650 2946 c0 -2 7 -6 15 -10 8 -3 15 -1 15 4 0 6 -7 10 -15 10 -8 0
-15 -2 -15 -4z"/>
<path d="M1586 2932 c-3 -4 8 -13 25 -19 16 -6 27 -7 24 -2 -10 15 -43 30 -49
21z"/>
<path d="M3320 2930 c-13 -8 -12 -10 3 -10 9 0 17 5 17 10 0 12 -1 12 -20 0z"/>
<path d="M1546 2905 c-2 -7 5 -16 17 -19 33 -9 37 -7 31 8 -7 19 -42 27 -48
11z"/>
<path d="M3338 2903 c7 -3 16 -2 19 1 4 3 -2 6 -13 5 -11 0 -14 -3 -6 -6z"/>
<path d="M3380 2890 c-9 -6 -10 -10 -3 -10 6 0 15 5 18 10 8 12 4 12 -15 0z"/>
<path d="M2972 2879 c-35 -4 -75 -16 -89 -26 -34 -24 -41 -28 -87 -47 -21 -9
-36 -19 -33 -22 3 -4 16 1 29 10 30 21 44 20 27 -1 -8 -10 9 -1 36 18 57 41
118 59 202 59 113 0 233 -48 296 -120 15 -16 33 -30 40 -30 7 1 5 6 -5 14 -10
7 -15 16 -12 19 12 11 -137 105 -184 116 -74 16 -151 20 -220 10z"/>
<path d="M1493 2863 c9 -2 23 -2 30 0 6 3 -1 5 -18 5 -16 0 -22 -2 -12 -5z"/>
<path d="M1822 2854 c-83 -22 -162 -65 -195 -107 -27 -33 -35 -37 -61 -31 -35
7 -26 -11 9 -19 11 -3 -5 -5 -35 -6 -48 -2 -52 -4 -30 -12 14 -6 45 -7 69 -4
30 5 41 3 36 -5 -7 -12 11 -9 102 16 68 19 79 18 63 -1 -16 -19 3 -20 22 -1
12 11 54 13 209 11 108 -1 205 -6 217 -9 13 -5 22 -3 22 3 0 6 -7 11 -15 11
-9 0 -18 6 -21 14 -3 8 -20 17 -37 20 -18 4 -57 18 -87 32 -30 15 -65 31 -77
37 -39 18 -142 2 -216 -33 -38 -18 -86 -34 -108 -37 -38 -5 -39 -7 -23 -24 16
-18 16 -19 -19 -19 -21 0 -37 3 -37 6 0 19 61 79 99 98 92 46 151 60 251 60
77 -1 103 -5 137 -23 47 -23 57 -26 48 -11 -3 5 6 5 24 -1 17 -6 36 -9 43 -7
7 3 -9 12 -35 21 -26 9 -54 14 -61 11 -7 -3 -19 2 -26 11 -16 20 -192 20 -268
-1z m118 -102 c0 -21 -29 -32 -83 -32 -40 0 -56 3 -51 11 3 6 18 9 33 6 14 -3
37 1 51 8 28 16 50 19 50 7z m63 1 c7 -7 -11 -33 -23 -33 -4 0 -10 9 -13 20
-4 14 0 20 12 20 10 0 21 -3 24 -7z m106 -17 c10 -12 6 -15 -19 -21 -36 -8
-45 -3 -37 20 8 19 41 20 56 1z m48 -22 c-3 -3 -12 -4 -19 -1 -8 3 -5 6 6 6
11 1 17 -2 13 -5z"/>
<path d="M1465 2840 c3 -5 16 -10 28 -10 18 0 19 2 7 10 -20 13 -43 13 -35 0z"/>
<path d="M2885 2810 c-3 -5 -2 -10 4 -10 5 0 13 5 16 10 3 6 2 10 -4 10 -5 0
-13 -4 -16 -10z"/>
<path d="M2994 2805 c-38 -11 -98 -39 -139 -63 -11 -7 -32 -16 -47 -22 -39
-13 -35 -31 5 -23 17 3 34 9 37 12 8 10 91 53 95 49 1 -2 6 -14 10 -27 7 -23
6 -24 -33 -19 -50 7 -80 -8 -31 -16 46 -7 149 -3 143 6 -2 3 10 3 27 -2 17 -5
44 -7 60 -3 20 4 30 1 35 -10 3 -9 13 -18 22 -22 14 -5 13 -3 -2 14 -17 18
-16 19 31 26 34 4 59 1 85 -9 45 -19 82 -21 72 -4 -5 8 0 9 17 4 42 -14 136
-19 154 -9 13 7 -9 12 -77 15 -56 3 -107 11 -124 20 -16 8 -60 30 -99 49 -38
18 -73 38 -77 44 -5 7 -8 6 -8 -2 0 -6 -8 -9 -17 -7 -46 10 -103 10 -139 -1z
m28 -43 c12 -5 15 -11 8 -21 -7 -12 -11 -12 -24 -2 -29 24 -20 37 16 23z m73
-12 c3 -5 -4 -6 -15 -3 -11 3 -22 9 -25 13 -3 5 4 6 15 3 11 -3 22 -9 25 -13z
m115 -10 c0 -10 -31 -22 -38 -16 -2 3 -2 12 1 20 6 15 37 12 37 -4z m-56 -9
c8 -12 -67 -21 -79 -9 -6 6 -4 7 6 3 10 -4 20 -2 24 4 8 13 42 14 49 2z"/>
<path d="M2190 2786 c0 -2 7 -9 15 -16 9 -7 15 -8 15 -2 0 5 -7 12 -15 16 -8
3 -15 4 -15 2z"/>
<path d="M2769 2744 c-13 -15 -18 -25 -10 -22 13 4 49 48 39 48 -2 0 -15 -12
-29 -26z"/>
<path d="M2250 2730 c0 -5 5 -10 11 -10 5 0 7 5 4 10 -3 6 -8 10 -11 10 -2 0
-4 -4 -4 -10z"/>
<path d="M2515 2720 c-5 -8 53 -26 60 -18 2 2 -9 9 -25 15 -17 6 -32 7 -35 3z"/>
<path d="M2272 2691 c-7 -19 -10 -36 -8 -38 8 -8 27 38 24 55 -3 11 -8 5 -16
-17z"/>
<path d="M1815 2670 c-3 -5 -1 -10 4 -10 6 0 11 5 11 10 0 6 -2 10 -4 10 -3 0
-8 -4 -11 -10z"/>
<path d="M3040 2659 c0 -5 5 -7 10 -4 6 3 10 8 10 11 0 2 -4 4 -10 4 -5 0 -10
-5 -10 -11z"/>
<path d="M3080 2660 c0 -5 7 -10 16 -10 8 0 12 5 9 10 -3 6 -10 10 -16 10 -5
0 -9 -4 -9 -10z"/>
<path d="M2810 2639 c0 -5 5 -7 10 -4 6 3 10 8 10 11 0 2 -4 4 -10 4 -5 0 -10
-5 -10 -11z"/>
<path d="M3290 2577 c-36 -6 -57 -12 -46 -15 28 -6 126 8 126 19 0 5 -3 8 -7
8 -5 -1 -37 -6 -73 -12z"/>
<path d="M2018 2553 c7 -3 16 -2 19 1 4 3 -2 6 -13 5 -11 0 -14 -3 -6 -6z"/>
<path d="M3145 2540 c-19 -8 -19 -9 3 -9 12 -1 22 4 22 9 0 6 -1 10 -2 9 -2 0
-12 -4 -23 -9z"/>
<path d="M3493 2418 c7 -20 -9 -25 -16 -5 -3 7 -6 5 -6 -5 -1 -10 5 -18 13
-18 21 0 30 20 16 33 -10 9 -12 8 -7 -5z"/>
<path d="M1411 2184 c0 -11 3 -14 6 -6 3 7 2 16 -1 19 -3 4 -6 -2 -5 -13z"/>
<path d="M3550 2190 c0 -5 5 -10 11 -10 5 0 7 5 4 10 -3 6 -8 10 -11 10 -2 0
-4 -4 -4 -10z"/>
<path d="M3590 2190 c0 -6 7 -10 15 -10 8 0 15 2 15 4 0 2 -7 6 -15 10 -8 3
-15 1 -15 -4z"/>
<path d="M3410 2176 c0 -3 9 -10 20 -16 11 -6 20 -8 20 -6 0 3 -9 10 -20 16
-11 6 -20 8 -20 6z"/>
<path d="M3543 2140 c14 -11 33 -20 44 -19 12 0 10 4 -9 11 -16 5 -28 14 -28
19 0 5 -7 9 -16 9 -12 0 -10 -5 9 -20z"/>
<path d="M3480 2146 c0 -4 11 -21 25 -38 14 -16 25 -25 25 -20 0 5 -11 22 -25
38 -14 16 -25 25 -25 20z"/>
<path d="M1480 2113 c0 -10 4 -14 8 -8 4 6 11 13 16 18 5 4 2 7 -7 7 -10 0
-17 -8 -17 -17z"/>
<path d="M2110 2086 c0 -19 3 -37 8 -40 4 -2 6 13 4 35 -5 48 -12 51 -12 5z"/>
<path d="M2670 2055 c-13 -14 -20 -28 -16 -32 4 -4 10 -2 15 5 4 7 26 13 49
14 44 1 50 6 30 26 -19 19 -53 14 -78 -13z"/>
<path d="M3611 2041 c-7 -5 -9 -11 -4 -14 5 -3 15 -2 22 2 7 5 9 11 4 14 -5 3
-15 2 -22 -2z"/>
<path d="M2225 2030 c-3 -5 3 -10 15 -10 12 0 30 -5 41 -11 11 -6 25 -8 32 -6
14 4 -45 37 -67 37 -8 0 -18 -4 -21 -10z"/>
<path d="M3496 2002 c-3 -6 1 -13 10 -16 23 -9 28 -2 10 13 -8 7 -17 8 -20 3z"/>
<path d="M2176 1980 c6 -6 24 -13 40 -15 16 -3 39 -7 52 -10 12 -3 22 -1 22 5
0 13 -11 17 -75 24 -34 4 -46 3 -39 -4z"/>
<path d="M2618 1983 c7 -3 16 -2 19 1 4 3 -2 6 -13 5 -11 0 -14 -3 -6 -6z"/>
<path d="M1483 1958 c-13 -6 -23 -15 -23 -20 0 -10 36 7 45 22 7 12 7 12 -22
-2z"/>
<path d="M1690 1961 c0 -10 19 -25 25 -20 1 2 -3 10 -11 17 -8 7 -14 8 -14 3z"/>
<path d="M2465 1960 c-3 -5 -1 -10 4 -10 6 0 11 5 11 10 0 6 -2 10 -4 10 -3 0
-8 -4 -11 -10z"/>
<path d="M2815 1960 c3 -5 11 -10 16 -10 6 0 7 5 4 10 -3 6 -11 10 -16 10 -6
0 -7 -4 -4 -10z"/>
<path d="M3515 1950 c-4 -12 -4 -24 -1 -27 3 -4 6 1 6 10 0 10 4 17 10 17 5 0
7 -7 4 -15 -4 -8 -1 -15 5 -15 16 0 14 25 -3 39 -11 10 -16 8 -21 -9z"/>
<path d="M3487 1939 c4 -13 8 -18 11 -10 2 7 -1 18 -6 23 -8 8 -9 4 -5 -13z"/>
<path d="M2851 1941 c-10 -7 -10 -10 -1 -13 12 -4 15 -34 8 -73 -2 -12 3 -21
15 -23 9 -2 17 1 17 7 0 6 -4 11 -10 11 -5 0 -10 5 -10 11 0 5 3 8 8 5 4 -2 6
13 4 35 -4 43 -11 52 -31 40z"/>
<path d="M2965 1940 c3 -5 8 -10 11 -10 2 0 4 5 4 10 0 6 -5 10 -11 10 -5 0
-7 -4 -4 -10z"/>
<path d="M3070 1940 c0 -5 5 -10 10 -10 6 0 10 5 10 10 0 6 -4 10 -10 10 -5 0
-10 -4 -10 -10z"/>
<path d="M3370 1940 c8 -5 20 -10 25 -10 6 0 3 5 -5 10 -8 5 -19 10 -25 10 -5
0 -3 -5 5 -10z"/>
<path d="M2938 1922 c9 -10 19 -17 21 -16 6 5 -20 34 -30 34 -5 0 -1 -8 9 -18z"/>
<path d="M3004 1933 c5 -8 1 -13 -11 -14 -14 0 -14 -2 -3 -6 46 -15 46 -15 26
-22 -11 -4 -20 -15 -22 -24 -2 -13 5 -17 26 -17 18 0 33 -8 44 -25 19 -29 20
-39 4 -29 -10 6 -10 4 0 -8 13 -16 52 -14 52 2 0 5 -12 18 -26 29 -15 12 -22
21 -17 21 5 0 7 16 5 36 -3 24 -7 32 -13 23 -6 -11 -15 -7 -40 16 -18 17 -29
24 -25 18z m50 -62 c17 -19 17 -19 -6 -14 -49 10 -54 15 -33 23 11 5 20 9 21
9 0 1 9 -8 18 -18z"/>
<path d="M2064 1886 c-3 -21 -4 -39 -1 -42 2 -3 8 11 11 32 4 20 5 38 2 41 -2
3 -8 -11 -12 -31z"/>
<path d="M3440 1910 c0 -5 5 -10 11 -10 5 0 7 5 4 10 -3 6 -8 10 -11 10 -2 0
-4 -4 -4 -10z"/>
<path d="M2151 1884 c-12 -27 -11 -28 4 -12 10 9 16 21 13 28 -2 7 -10 -1 -17
-16z"/>
<path d="M1995 1890 c-3 -5 -2 -10 4 -10 5 0 13 5 16 10 3 6 2 10 -4 10 -5 0
-13 -4 -16 -10z"/>
<path d="M2550 1886 c0 -9 5 -16 10 -16 6 0 10 4 10 9 0 6 -4 13 -10 16 -5 3
-10 -1 -10 -9z"/>
<path d="M2091 1883 c0 -6 -4 -20 -7 -30 -5 -14 -4 -15 5 -7 7 7 11 20 8 30
-3 11 -5 14 -6 7z"/>
<path d="M2120 1871 c-12 -24 -13 -34 -1 -27 9 6 22 46 15 46 -2 0 -8 -9 -14
-19z"/>
<path d="M2944 1875 c6 -16 4 -16 -10 -4 -16 13 -16 12 -6 -8 15 -27 16 -56 1
-48 -6 4 -14 17 -19 29 -8 20 -9 19 -9 -6 -1 -17 7 -33 22 -43 21 -15 22 -14
25 5 2 11 7 18 11 16 4 -3 5 11 3 30 -2 19 -9 37 -15 41 -7 4 -8 0 -3 -12z"/>
<path d="M3520 1880 c0 -5 5 -10 11 -10 5 0 7 5 4 10 -3 6 -8 10 -11 10 -2 0
-4 -4 -4 -10z"/>
<path d="M1885 1860 c2 -14 5 -31 5 -39 0 -8 3 -11 7 -8 3 4 12 -1 19 -11 12
-15 13 -15 14 -1 0 9 -7 23 -16 30 -9 7 -20 22 -25 34 -8 17 -9 17 -4 -5z"/>
<path d="M2835 1870 c3 -5 8 -10 11 -10 2 0 4 5 4 10 0 6 -5 10 -11 10 -5 0
-7 -4 -4 -10z"/>
<path d="M3406 1859 c12 -13 24 -33 28 -43 3 -10 9 -16 12 -13 9 9 -29 70 -46
75 -10 3 -8 -3 6 -19z"/>
<path d="M1946 1849 c-11 -10 -15 -19 -8 -19 10 0 42 27 42 36 0 9 -16 2 -34
-17z"/>
<path d="M1995 1861 c-3 -5 -1 -12 5 -16 5 -3 10 1 10 9 0 18 -6 21 -15 7z"/>
<path d="M3315 1850 c3 -5 8 -10 11 -10 2 0 4 5 4 10 0 6 -5 10 -11 10 -5 0
-7 -4 -4 -10z"/>
<path d="M3485 1850 c3 -5 8 -10 11 -10 2 0 4 5 4 10 0 6 -5 10 -11 10 -5 0
-7 -4 -4 -10z"/>
<path d="M1606 1824 c-4 -14 -5 -28 -3 -31 3 -2 8 8 11 23 4 14 5 28 3 31 -3
2 -8 -8 -11 -23z"/>
<path d="M3275 1840 c3 -5 8 -10 11 -10 2 0 4 5 4 10 0 6 -5 10 -11 10 -5 0
-7 -4 -4 -10z"/>
<path d="M2041 1824 c0 -11 3 -14 6 -6 3 7 2 16 -1 19 -3 4 -6 -2 -5 -13z"/>
<path d="M3236 1824 c-3 -8 1 -17 10 -21 22 -8 29 4 11 21 -13 14 -16 14 -21
0z"/>
<path d="M1475 1817 c-8 -19 -2 -31 13 -26 5 2 6 13 2 24 -7 19 -8 19 -15 2z"/>
<path d="M1817 1823 c-4 -3 -7 -11 -7 -17 0 -6 5 -5 12 2 6 6 9 14 7 17 -3 3
-9 2 -12 -2z"/>
<path d="M2060 1820 c0 -5 5 -10 11 -10 5 0 7 5 4 10 -3 6 -8 10 -11 10 -2 0
-4 -4 -4 -10z"/>
<path d="M3356 1820 c24 -9 49 -67 32 -72 -6 -2 -2 -10 8 -18 16 -14 17 -13
11 3 -3 9 -2 17 3 17 6 0 10 -4 10 -9 0 -5 8 -12 17 -16 13 -4 11 2 -8 22 -14
15 -30 40 -37 56 -8 18 -19 27 -34 26 -23 0 -23 0 -2 -9z"/>
<path d="M3507 1798 c-2 -18 -3 -35 0 -38 7 -8 23 24 23 48 0 34 -17 26 -23
-10z"/>
<path d="M1761 1773 c-13 -46 -13 -53 -2 -53 8 0 23 81 16 88 -2 2 -8 -13 -14
-35z"/>
<path d="M1863 1786 c-13 -6 -23 -14 -23 -18 0 -14 17 -9 41 12 26 21 17 24
-18 6z"/>
<path d="M1540 1757 c0 -15 4 -27 8 -27 10 0 9 36 -1 46 -4 4 -7 -5 -7 -19z"/>
<path d="M3308 1773 c6 -2 18 -2 25 0 6 3 1 5 -13 5 -14 0 -19 -2 -12 -5z"/>
<path d="M1572 1750 c0 -14 2 -19 5 -12 2 6 2 18 0 25 -3 6 -5 1 -5 -13z"/>
<path d="M1720 1761 c0 -5 5 -13 10 -16 6 -3 10 -2 10 4 0 5 -4 13 -10 16 -5
3 -10 2 -10 -4z"/>
<path d="M1785 1760 c-3 -5 -1 -10 4 -10 6 0 11 5 11 10 0 6 -2 10 -4 10 -3 0
-8 -4 -11 -10z"/>
<path d="M1810 1760 c0 -5 5 -10 10 -10 6 0 10 5 10 10 0 6 -4 10 -10 10 -5 0
-10 -4 -10 -10z"/>
<path d="M1490 1739 c-6 -11 -9 -25 -7 -32 2 -7 11 3 21 21 9 17 12 32 7 32
-6 0 -15 -9 -21 -21z"/>
<path d="M1772 1714 c-6 -10 -17 -15 -28 -12 -17 4 -19 0 -16 -44 4 -54 12
-60 29 -22 10 21 9 24 -2 14 -10 -8 -13 -5 -11 15 1 29 13 32 31 8 11 -14 13
-12 17 20 4 39 -5 48 -20 21z"/>
<path d="M1587 1713 c-11 -10 -8 -43 4 -43 5 0 7 5 4 10 -4 6 -1 17 5 25 12
15 0 22 -13 8z"/>
<path d="M3420 1710 c0 -5 5 -10 11 -10 5 0 7 5 4 10 -3 6 -8 10 -11 10 -2 0
-4 -4 -4 -10z"/>
<path d="M1645 1700 c-3 -5 -3 -14 0 -20 3 -5 0 -7 -8 -4 -8 3 -17 -1 -20 -9
-4 -10 1 -13 18 -10 16 4 23 12 23 29 0 26 -3 29 -13 14z"/>
<path d="M1690 1680 c-13 -8 -12 -10 3 -10 9 0 17 5 17 10 0 12 -1 12 -20 0z"/>
<path d="M1690 1650 c0 -5 5 -10 10 -10 6 0 10 5 10 10 0 6 -4 10 -10 10 -5 0
-10 -4 -10 -10z"/>
<path d="M1624 1639 c-3 -6 -17 -8 -30 -5 -14 4 -24 2 -24 -4 0 -5 10 -10 21
-10 12 0 28 -8 35 -17 12 -17 13 -16 14 7 1 25 1 25 10 3 12 -31 17 -29 16 5
-1 29 -29 42 -42 21z"/>
<path d="M1695 1549 c-6 -19 0 -38 9 -28 10 12 16 49 7 49 -5 0 -13 -9 -16
-21z"/>
<path d="M4080 3021 c0 -6 4 -13 10 -16 6 -3 7 1 4 9 -7 18 -14 21 -14 7z"/>
<path d="M4090 2864 c0 -8 5 -12 10 -9 6 3 10 10 10 16 0 5 -4 9 -10 9 -5 0
-10 -7 -10 -16z"/>
<path d="M4090 2791 c0 -5 5 -13 10 -16 6 -3 10 -2 10 4 0 5 -4 13 -10 16 -5
3 -10 2 -10 -4z"/>
<path d="M4190 2473 c0 -28 -3 -66 -6 -84 -4 -23 -3 -30 4 -21 6 9 11 -12 15
-63 3 -42 8 -80 11 -83 12 -12 15 5 6 43 -5 22 -11 87 -15 145 -6 110 -15 147
-15 63z"/>
<path d="M4167 2503 c-3 -5 -10 -41 -16 -82 -6 -40 -16 -82 -22 -92 -6 -13 -6
-19 0 -19 13 0 38 88 44 153 4 46 3 55 -6 40z"/>
<path d="M4097 2420 c3 -11 9 -20 14 -20 11 0 11 3 3 24 -9 23 -23 20 -17 -4z"/>
<path d="M4171 2263 c0 -23 4 -45 9 -48 6 -3 10 -25 10 -48 0 -23 5 -49 10
-57 16 -25 12 67 -4 103 -8 18 -17 46 -19 62 -3 24 -4 21 -6 -12z"/>
<path d="M4096 2236 c-18 -62 -20 -74 -7 -60 14 14 41 114 31 114 -5 0 -16
-24 -24 -54z"/>
<path d="M4151 2255 c-1 -17 -3 -18 -11 -5 -8 13 -10 13 -10 -2 0 -9 4 -19 8
-22 5 -3 7 -20 6 -38 -3 -29 -2 -28 7 7 5 22 8 49 6 60 l-4 20 -2 -20z"/>
<path d="M4115 2207 c-4 -10 -5 -21 -1 -24 10 -10 18 4 13 24 -4 17 -4 17 -12
0z"/>
<path d="M4220 2165 c0 -25 5 -45 10 -45 6 0 10 20 10 45 0 25 -4 45 -10 45
-5 0 -10 -20 -10 -45z"/>
<path d="M4128 2144 c-5 -4 -8 -16 -8 -28 0 -14 3 -17 11 -9 6 6 9 19 7 28 -1
9 -6 13 -10 9z"/>
<path d="M4070 2089 c0 -5 5 -7 10 -4 6 3 10 8 10 11 0 2 -4 4 -10 4 -5 0 -10
-5 -10 -11z"/>
<path d="M4202 2035 c-1 -33 -5 -78 -8 -100 -5 -30 -4 -37 5 -29 8 7 11 41 8
100 -2 67 -3 74 -5 29z"/>
<path d="M4177 1987 c-4 -10 -7 -28 -6 -40 0 -21 1 -21 10 2 5 14 8 32 7 40
-3 13 -5 13 -11 -2z"/>
<path d="M4037 1933 c-4 -3 -7 -13 -7 -22 1 -13 3 -13 11 2 11 19 8 33 -4 20z"/>
<path d="M4015 1870 c-3 -5 -1 -10 4 -10 6 0 11 5 11 10 0 6 -2 10 -4 10 -3 0
-8 -4 -11 -10z"/>
<path d="M4156 1810 c-15 -78 -17 -95 -7 -80 11 17 26 110 18 110 -3 0 -8 -13
-11 -30z"/>
<path d="M3976 1765 c-3 -8 -1 -15 4 -15 6 0 10 7 10 15 0 8 -2 15 -4 15 -2 0
-6 -7 -10 -15z"/>
<path d="M4146 1675 c-10 -33 -27 -77 -38 -98 -11 -22 -15 -36 -10 -33 6 3 12
0 14 -6 3 -8 10 -4 17 11 11 19 11 22 0 16 -9 -6 -10 -3 -4 11 22 53 45 131
42 144 -2 8 -11 -12 -21 -45z"/>
<path d="M4088 1605 c-5 -39 7 -34 17 8 4 16 3 27 -3 27 -5 0 -12 -16 -14 -35z"/>
<path d="M4046 1514 c-4 -14 -5 -29 -2 -31 3 -3 8 7 12 21 3 15 4 29 1 32 -2
3 -8 -7 -11 -22z"/>
<path d="M4048 1462 c-25 -37 -48 -84 -52 -103 -3 -18 -3 -28 0 -20 5 11 8 11
16 0 5 -9 6 -5 2 13 -5 21 1 36 28 70 38 49 64 95 56 103 -3 3 -25 -25 -50
-63z"/>
<path d="M4111 1507 c-13 -17 -43 -87 -36 -87 2 0 16 23 30 50 25 50 27 62 6
37z"/>
<path d="M3991 1429 c-12 -22 -17 -38 -12 -35 14 9 51 76 42 76 -5 0 -19 -18
-30 -41z"/>
<path d="M4052 1330 c0 -14 2 -19 5 -12 2 6 2 18 0 25 -3 6 -5 1 -5 -13z"/>
<path d="M3912 1273 c-11 -15 -36 -57 -56 -93 -20 -36 -36 -60 -36 -55 1 6 7
21 15 35 17 29 18 40 6 40 -5 0 -12 -12 -17 -27 -9 -33 -12 -83 -4 -83 7 1
121 203 116 207 -2 2 -13 -8 -24 -24z"/>
<path d="M3768 1205 c-4 -20 -3 -23 8 -14 16 13 19 39 5 39 -5 0 -11 -11 -13
-25z"/>
<path d="M3760 1161 c0 -6 5 -13 10 -16 6 -3 10 -30 10 -60 0 -37 4 -55 15
-58 14 -6 57 -81 51 -88 -9 -11 -15 -90 -7 -85 5 4 13 27 17 51 7 53 -7 97
-42 124 -19 15 -22 25 -18 52 6 37 -9 89 -26 89 -5 0 -10 -4 -10 -9z"/>
<path d="M3812 828 c-14 -14 -16 -28 -3 -28 9 0 24 30 18 36 -2 2 -9 -2 -15
-8z"/>
<path d="M775 2470 c3 -5 8 -10 11 -10 2 0 4 5 4 10 0 6 -5 10 -11 10 -5 0 -7
-4 -4 -10z"/>
<path d="M770 2424 c0 -8 5 -12 10 -9 6 4 8 11 5 16 -9 14 -15 11 -15 -7z"/>
<path d="M778 2344 c-5 -4 -8 -23 -8 -43 1 -30 2 -33 11 -18 11 19 8 73 -3 61z"/>
<path d="M737 2256 c-4 -10 -5 -21 -2 -24 9 -9 17 6 13 25 -3 17 -4 17 -11 -1z"/>
<path d="M732 2178 c-6 -18 -8 -34 -3 -37 4 -4 13 -37 20 -76 20 -125 34 -185
43 -185 10 0 1 60 -14 100 -6 14 -12 71 -15 128 -3 56 -9 102 -12 102 -4 0
-12 -14 -19 -32z"/>
<path d="M786 2040 c9 -78 26 -100 18 -25 -3 33 -11 65 -16 70 -6 6 -7 -10 -2
-45z"/>
<path d="M870 2056 c0 -14 21 -58 26 -54 8 8 -7 58 -17 58 -5 0 -9 -2 -9 -4z"/>
<path d="M947 1905 c8 -25 19 -45 24 -45 13 0 11 15 -8 55 -24 50 -35 43 -16
-10z"/>
<path d="M906 1931 c-4 -6 -2 -11 3 -11 6 0 11 -8 12 -17 0 -10 3 -13 5 -6 8
18 -11 49 -20 34z"/>
<path d="M930 1875 c0 -2 5 -16 12 -30 16 -35 29 -31 17 5 -6 17 -15 30 -20
30 -5 0 -9 -2 -9 -5z"/>
<path d="M796 1848 c15 -51 25 -70 31 -64 8 8 -18 86 -29 86 -5 0 -6 -10 -2
-22z"/>
<path d="M857 1823 c3 -26 10 -55 15 -63 5 -9 6 5 2 40 -3 30 -10 59 -14 63
-4 5 -5 -13 -3 -40z"/>
<path d="M960 1796 c0 -8 5 -18 10 -21 6 -3 10 1 10 9 0 8 -4 18 -10 21 -5 3
-10 -1 -10 -9z"/>
<path d="M780 1679 c0 -11 4 -18 10 -14 5 3 7 12 3 20 -7 21 -13 19 -13 -6z"/>
<path d="M915 1655 c11 -47 14 -55 24 -55 5 0 3 16 -3 35 -16 45 -30 58 -21
20z"/>
<path d="M780 1630 c0 -5 5 -10 10 -10 6 0 10 5 10 10 0 6 -4 10 -10 10 -5 0
-10 -4 -10 -10z"/>
<path d="M1030 1620 c0 -5 5 -10 11 -10 5 0 7 5 4 10 -3 6 -8 10 -11 10 -2 0
-4 -4 -4 -10z"/>
<path d="M1060 1623 c0 -5 5 -15 10 -23 8 -12 10 -11 10 8 0 12 -4 22 -10 22
-5 0 -10 -3 -10 -7z"/>
<path d="M781 1595 c0 -11 4 -27 9 -35 9 -13 10 -13 9 0 0 8 -4 24 -9 35 l-9
20 0 -20z"/>
<path d="M981 1520 c13 -16 24 -28 27 -26 6 6 -29 56 -39 56 -5 0 0 -13 12
-30z"/>
<path d="M805 1530 c3 -5 8 -10 11 -10 2 0 4 5 4 10 0 6 -5 10 -11 10 -5 0 -7
-4 -4 -10z"/>
<path d="M822 1480 c0 -14 2 -19 5 -12 2 6 2 18 0 25 -3 6 -5 1 -5 -13z"/>
<path d="M1055 1410 c3 -5 11 -10 16 -10 6 0 7 5 4 10 -3 6 -11 10 -16 10 -6
0 -7 -4 -4 -10z"/>
<path d="M1080 1380 c0 -5 5 -10 11 -10 5 0 7 5 4 10 -3 6 -8 10 -11 10 -2 0
-4 -4 -4 -10z"/>
<path d="M850 1358 c0 -13 -3 -34 -7 -47 -4 -16 -2 -22 4 -18 13 8 22 76 11
83 -4 3 -8 -5 -8 -18z"/>
<path d="M1220 1173 c11 -21 20 -46 20 -55 0 -10 5 -18 11 -18 13 0 3 56 -17
88 -24 37 -35 25 -14 -15z"/>
<path d="M827 1113 c-11 -10 -8 -51 3 -58 6 -4 10 8 10 29 0 37 -2 41 -13 29z"/>
<path d="M2211 1754 c0 -11 3 -14 6 -6 3 7 2 16 -1 19 -3 4 -6 -2 -5 -13z"/>
<path d="M2445 1660 c-3 -5 -1 -10 4 -10 6 0 11 5 11 10 0 6 -2 10 -4 10 -3 0
-8 -4 -11 -10z"/>
<path d="M2551 1599 c-13 -5 -22 -12 -19 -15 3 -3 21 2 39 10 37 16 19 21 -20
5z"/>
<path d="M2145 1590 c3 -5 10 -10 16 -10 5 0 9 5 9 10 0 6 -7 10 -16 10 -8 0
-12 -4 -9 -10z"/>
<path d="M2505 1590 c3 -5 8 -10 11 -10 2 0 4 5 4 10 0 6 -5 10 -11 10 -5 0
-7 -4 -4 -10z"/>
<path d="M3215 1675 c3 -8 7 -22 10 -31 4 -12 7 -13 19 -2 8 7 12 17 9 22 -3
4 -9 2 -14 -5 -6 -10 -9 -8 -9 9 0 12 -4 22 -10 22 -5 0 -7 -7 -5 -15z"/>
<path d="M2635 1520 c-3 -5 -1 -10 4 -10 6 0 11 5 11 10 0 6 -2 10 -4 10 -3 0
-8 -4 -11 -10z"/>
<path d="M2950 1510 c0 -12 17 -12 45 0 17 7 15 9 -12 9 -18 1 -33 -3 -33 -9z"/>
<path d="M2517 1490 c3 -11 7 -20 9 -20 2 0 4 9 4 20 0 11 -4 20 -9 20 -5 0
-7 -9 -4 -20z"/>
<path d="M2927 1493 c-4 -3 -7 -15 -7 -25 0 -15 3 -17 19 -9 15 9 22 6 34 -12
8 -12 18 -19 23 -15 11 11 -26 48 -48 48 -11 0 -16 5 -13 10 7 11 2 13 -8 3z"/>
<path d="M2098 1483 c12 -2 32 -2 45 0 12 2 2 4 -23 4 -25 0 -35 -2 -22 -4z"/>
<path d="M3035 1460 l-20 -9 20 0 c11 0 27 4 35 9 13 9 13 10 0 9 -8 0 -24 -4
-35 -9z"/>
<path d="M2906 1439 c3 -5 14 -9 25 -9 10 0 19 4 19 9 0 5 -11 9 -25 9 -13 0
-22 -4 -19 -9z"/>
<path d="M2160 1429 c0 -5 5 -7 10 -4 6 3 10 8 10 11 0 2 -4 4 -10 4 -5 0 -10
-5 -10 -11z"/>
<path d="M2830 1421 c-14 -28 -12 -51 4 -51 8 0 23 -2 33 -5 10 -3 6 0 -8 7
-23 11 -25 15 -12 26 12 11 17 11 31 0 9 -7 20 -17 24 -23 4 -5 10 -6 14 -2 9
9 -45 67 -63 67 -7 0 -17 -9 -23 -19z"/>
<path d="M3026 1432 c-3 -5 1 -15 9 -22 16 -14 20 -3 6 19 -5 8 -11 9 -15 3z"/>
<path d="M2205 1420 c-27 -7 -25 -8 18 -9 30 -1 46 3 42 9 -7 11 -16 11 -60 0z"/>
<path d="M2736 1414 c-4 -9 -4 -19 -1 -22 2 -3 7 3 11 12 4 9 4 19 1 22 -2 3
-7 -3 -11 -12z"/>
<path d="M2985 1410 c3 -5 14 -10 23 -10 15 0 15 2 2 10 -20 13 -33 13 -25 0z"/>
<path d="M2605 1390 c3 -5 11 -10 16 -10 6 0 7 5 4 10 -3 6 -11 10 -16 10 -6
0 -7 -4 -4 -10z"/>
<path d="M2692 1388 c5 -15 28 -23 28 -10 0 5 -7 13 -16 16 -10 4 -14 1 -12
-6z"/>
<path d="M2157 1384 c-3 -3 -22 -7 -43 -7 -36 -2 -63 -27 -29 -27 9 0 14 4 11
9 -3 5 10 9 29 8 19 -1 40 4 47 11 7 7 8 12 2 12 -6 0 -13 -3 -17 -6z"/>
<path d="M2535 1380 c3 -5 11 -10 16 -10 6 0 7 5 4 10 -3 6 -11 10 -16 10 -6
0 -7 -4 -4 -10z"/>
<path d="M2655 1380 c3 -5 10 -10 16 -10 5 0 9 5 9 10 0 6 -7 10 -16 10 -8 0
-12 -4 -9 -10z"/>
<path d="M2875 1340 c3 -5 8 -10 11 -10 2 0 4 5 4 10 0 6 -5 10 -11 10 -5 0
-7 -4 -4 -10z"/>
<path d="M2877 1288 c5 -19 3 -21 -8 -10 -7 6 -18 12 -23 12 -6 -1 2 -12 18
-25 26 -21 29 -27 18 -49 -9 -19 -8 -27 4 -36 10 -9 14 -9 14 -1 0 6 -5 11
-11 11 -8 0 -8 5 1 15 7 9 10 27 6 45 -3 17 -1 30 3 30 24 0 41 -14 41 -35 0
-12 7 -28 15 -35 10 -9 15 -9 15 -1 0 6 -4 11 -10 11 -5 0 -10 10 -10 22 0 12
-8 30 -17 40 -16 18 -16 18 3 12 15 -5 16 -4 8 5 -9 10 -17 10 -34 1 -15 -8
-20 -8 -16 -1 4 6 1 11 -7 11 -11 0 -13 -7 -10 -22z"/>
<path d="M2978 1303 c7 -3 16 -2 19 1 4 3 -2 6 -13 5 -11 0 -14 -3 -6 -6z"/>
<path d="M2739 1273 c-11 -3 -15 -11 -12 -24 6 -23 23 -26 23 -3 0 8 4 13 9 9
5 -3 12 -1 15 4 7 11 -13 19 -35 14z"/>
<path d="M2808 1263 c6 -2 12 -11 12 -18 0 -13 21 -25 43 -25 7 0 -1 11 -18
25 -16 13 -34 24 -40 24 -5 0 -4 -3 3 -6z"/>
<path d="M2788 1233 c5 -10 7 -24 5 -30 -3 -7 3 -13 12 -13 9 0 14 -4 11 -9
-3 -5 2 -15 11 -22 12 -10 14 -10 9 -1 -4 7 -2 12 5 12 8 0 8 4 -1 15 -7 8
-19 15 -27 15 -8 0 -12 4 -9 9 8 12 -3 41 -15 41 -6 0 -6 -7 -1 -17z"/>
<path d="M2910 1220 c0 -5 5 -10 11 -10 5 0 7 5 4 10 -3 6 -8 10 -11 10 -2 0
-4 -4 -4 -10z"/>
<path d="M2800 1128 c19 -18 41 -32 49 -33 8 0 15 -6 17 -13 1 -7 0 -8 -3 -2
-7 15 -23 12 -23 -4 0 -7 11 -16 25 -18 20 -4 24 -1 22 16 -1 13 -21 32 -56
53 -67 41 -75 42 -31 1z"/>
<path d="M2765 1120 c3 -5 16 -10 28 -9 21 0 21 1 2 9 -28 12 -37 12 -30 0z"/>
<path d="M2530 1113 c0 -4 5 -15 10 -23 8 -13 10 -13 10 2 0 9 -4 20 -10 23
-5 3 -10 3 -10 -2z"/>
<path d="M2910 1085 c7 -9 15 -13 17 -11 7 7 -7 26 -19 26 -6 0 -6 -6 2 -15z"/>
<path d="M2661 1054 c0 -11 3 -14 6 -6 3 7 2 16 -1 19 -3 4 -6 -2 -5 -13z"/>
<path d="M2567 1040 c-3 -11 -2 -20 3 -20 12 0 21 28 11 35 -5 2 -11 -4 -14
-15z"/>
<path d="M2600 1024 c0 -8 5 -12 10 -9 6 4 8 11 5 16 -9 14 -15 11 -15 -7z"/>
<path d="M2640 1020 c19 -13 30 -13 30 0 0 6 -10 10 -22 10 -19 0 -20 -2 -8
-10z"/>
<path d="M2813 995 c0 -14 3 -28 8 -31 5 -3 9 6 9 20 0 14 -4 27 -9 30 -5 3
-8 -6 -8 -19z"/>
<path d="M2686 997 c3 -10 9 -15 12 -12 3 3 0 11 -7 18 -10 9 -11 8 -5 -6z"/>
<path d="M2595 980 c-3 -5 -12 -7 -20 -3 -8 3 -15 0 -15 -6 0 -6 9 -11 20 -11
11 0 20 -6 20 -13 0 -8 7 -14 15 -14 10 0 14 6 10 14 -3 8 -5 17 -5 19 0 3 -5
2 -12 -2 -8 -5 -9 -2 -5 9 7 18 2 23 -8 7z"/>
<path d="M2780 940 c0 -5 9 -14 20 -20 11 -6 20 -7 20 -3 0 5 -9 14 -20 21
-11 7 -20 8 -20 2z"/>
<path d="M1795 1080 c10 -11 20 -20 23 -20 3 0 -3 9 -13 20 -10 11 -20 20 -23
20 -3 0 3 -9 13 -20z"/>
<path d="M1720 990 c8 -5 20 -10 25 -10 6 0 3 5 -5 10 -8 5 -19 10 -25 10 -5
0 -3 -5 5 -10z"/>
<path d="M4784 2255 c-10 -8 -14 -14 -9 -15 15 0 40 18 34 24 -3 3 -14 -1 -25
-9z"/>
<path d="M10 2230 c0 -5 7 -10 16 -10 8 0 12 5 9 10 -3 6 -10 10 -16 10 -5 0
-9 -4 -9 -10z"/>
<path d="M224 2209 c-3 -5 6 -9 20 -9 31 0 34 6 6 13 -11 3 -23 1 -26 -4z"/>
<path d="M920 821 c0 -5 5 -13 10 -16 6 -3 10 -2 10 4 0 5 -4 13 -10 16 -5 3
-10 2 -10 -4z"/>
<path d="M887 582 c-19 -20 -23 -37 -7 -27 10 6 33 45 27 45 -2 0 -11 -8 -20
-18z"/>
<path d="M508 573 c-10 -2 -18 -9 -18 -15 0 -5 7 -7 16 -4 9 3 20 6 25 6 5 0
9 5 9 10 0 10 -3 11 -32 3z"/>
<path d="M906 564 c-10 -25 1 -29 14 -5 6 12 7 21 1 21 -5 0 -12 -7 -15 -16z"/>
<path d="M555 550 c-3 -5 -2 -10 4 -10 5 0 13 5 16 10 3 6 2 10 -4 10 -5 0
-13 -4 -16 -10z"/>
<path d="M706 545 c-10 -8 -24 -16 -30 -18 -6 -2 -8 -7 -5 -11 10 -10 59 15
59 31 0 16 0 16 -24 -2z"/>
<path d="M590 540 c0 -5 7 -7 15 -4 8 4 15 8 15 10 0 2 -7 4 -15 4 -8 0 -15
-4 -15 -10z"/>
<path d="M637 543 c-12 -12 -7 -22 8 -17 8 4 15 10 15 15 0 11 -14 12 -23 2z"/>
<path d="M470 520 c0 -5 7 -10 16 -10 8 0 12 5 9 10 -3 6 -10 10 -16 10 -5 0
-9 -4 -9 -10z"/>
<path d="M130 510 c0 -5 5 -10 10 -10 6 0 10 5 10 10 0 6 -4 10 -10 10 -5 0
-10 -4 -10 -10z"/>
<path d="M4146 511 c-4 -7 -14 -10 -22 -7 -8 3 -14 1 -14 -3 0 -13 25 -20 40
-11 7 4 10 14 8 21 -3 10 -6 10 -12 0z"/>
<path d="M200 499 c0 -5 5 -7 10 -4 6 3 10 8 10 11 0 2 -4 4 -10 4 -5 0 -10
-5 -10 -11z"/>
<path d="M3960 500 c-8 -5 -12 -11 -9 -14 3 -3 14 1 25 9 21 16 8 20 -16 5z"/>
<path d="M76 490 c-15 -5 -16 -9 -7 -14 7 -5 18 -3 24 3 14 14 6 20 -17 11z"/>
<path d="M15 480 c-3 -5 3 -10 14 -10 12 0 21 5 21 10 0 6 -6 10 -14 10 -8 0
-18 -4 -21 -10z"/>
<path d="M714 476 c-10 -8 -16 -17 -13 -20 3 -4 17 2 30 13 27 23 13 28 -17 7z"/>
<path d="M827 482 c-4 -6 -14 -9 -22 -5 -11 4 -13 1 -9 -11 7 -18 13 -19 33
-7 7 5 11 15 9 22 -3 9 -6 10 -11 1z"/>
<path d="M3890 480 c0 -5 5 -10 10 -10 6 0 10 5 10 10 0 6 -4 10 -10 10 -5 0
-10 -4 -10 -10z"/>
<path d="M3905 451 c-7 -13 32 -24 47 -14 7 4 16 8 20 8 3 0 10 3 14 8 4 4
-11 7 -34 7 -22 0 -43 -4 -47 -9z"/>
<path d="M380 424 c-21 -21 -22 -27 -10 -34 22 -14 27 -13 49 16 36 46 1 62
-39 18z m25 -14 c-10 -11 -20 -18 -23 -15 -3 3 3 14 13 25 10 11 20 18 23 15
3 -3 -3 -14 -13 -25z"/>
<path d="M4132 348 c-7 -46 -12 -99 -12 -118 0 -30 -5 -37 -29 -46 -33 -13
-39 -35 -33 -122 l4 -62 86 0 85 0 -6 97 c-6 105 -32 274 -47 311 -20 46 -37
25 -48 -60z"/>
<path d="M4300 410 c0 -6 4 -9 9 -6 5 4 12 1 14 -4 3 -6 4 -5 3 2 -3 15 -26
23 -26 8z"/>
<path d="M3955 320 c3 -5 11 -10 16 -10 6 0 7 5 4 10 -3 6 -11 10 -16 10 -6 0
-7 -4 -4 -10z"/>
<path d="M332 294 c-30 -41 -54 -64 -65 -64 -5 0 -4 7 3 15 19 23 -4 18 -25
-5 -18 -20 -18 -21 0 -14 13 5 16 4 11 -4 -9 -14 -1 -15 22 -3 14 8 11 -12
-20 -102 -21 -62 -38 -113 -38 -114 0 -2 29 -3 65 -3 36 0 65 3 65 8 0 4 7 61
15 127 18 148 18 147 2 169 -13 17 -15 17 -35 -10z"/>
<path d="M4440 309 c0 -5 5 -7 10 -4 6 3 10 8 10 11 0 2 -4 4 -10 4 -5 0 -10
-5 -10 -11z"/>
<path d="M4326 275 c-9 -34 -6 -37 19 -19 17 13 18 16 3 30 -14 14 -16 13 -22
-11z"/>
<path d="M4726 265 c9 -14 19 -24 21 -21 7 7 -16 46 -28 46 -5 0 -2 -11 7 -25z"/>
<path d="M2 185 c0 -79 2 -92 9 -60 10 51 10 115 -1 140 -6 13 -8 -16 -8 -80z"/>
<path d="M3920 270 c0 -5 5 -10 10 -10 6 0 10 5 10 10 0 6 -4 10 -10 10 -5 0
-10 -4 -10 -10z"/>
<path d="M4425 260 c3 -5 11 -10 16 -10 6 0 7 5 4 10 -3 6 -11 10 -16 10 -6 0
-7 -4 -4 -10z"/>
<path d="M4422 233 c24 -49 33 -63 40 -63 11 0 1 39 -14 58 -11 13 -32 17 -26
5z"/>
<path d="M4360 227 c0 -5 5 -17 10 -28 7 -13 7 -19 0 -19 -5 0 -10 5 -10 11 0
5 -5 7 -11 3 -6 -3 -15 0 -20 7 -5 8 -6 -15 -2 -56 4 -53 12 -77 30 -98 12
-16 23 -33 23 -38 0 -5 20 -9 45 -9 l45 0 -16 38 c-9 20 -27 63 -39 94 -22 54
-55 111 -55 95z"/>
<path d="M4702 210 c0 -14 2 -19 5 -12 2 6 2 18 0 25 -3 6 -5 1 -5 -13z"/>
<path d="M4757 213 c-4 -6 3 -19 16 -29 12 -11 17 -12 11 -4 -6 8 -13 22 -16
30 -3 9 -7 10 -11 3z"/>
<path d="M4820 201 c0 -5 5 -13 10 -16 6 -3 10 -2 10 4 0 5 -4 13 -10 16 -5 3
-10 2 -10 -4z"/>
<path d="M530 181 c-7 -14 -6 -22 5 -31 18 -15 35 -5 35 20 0 25 -28 33 -40
11z"/>
<path d="M730 180 c0 -5 5 -10 10 -10 6 0 10 5 10 10 0 6 -4 10 -10 10 -5 0
-10 -4 -10 -10z"/>
<path d="M4724 155 c4 -20 2 -44 -5 -56 -6 -12 -13 -39 -15 -60 -3 -38 -3 -39
27 -39 l32 0 -7 73 c-9 90 -15 117 -28 117 -6 0 -8 -14 -4 -35z"/>
<path d="M20 10 c0 -5 5 -10 10 -10 6 0 10 5 10 10 0 6 -4 10 -10 10 -5 0 -10
-4 -10 -10z"/>
</g>
</svg>
